<svg width="2136" height="470" viewBox="0 0 2136 470" fill="none" xmlns="http://www.w3.org/2000/svg">
<path fill-rule="evenodd" clip-rule="evenodd" d="M433.619 117.5L216.81 0L0 117.5V352.5L216.81 470L433.619 352.5V117.5ZM372.277 133.848L216.81 48.7195V235.955L387.78 329.573V160.031C387.78 149.122 381.836 139.082 372.277 133.848Z" fill="white"/>
<path d="M716.155 364.5V158.884H635.067V111.1H855.887V158.884H774.799V364.5H716.155ZM962.013 367.396C939.81 367.396 920.262 363.052 903.369 354.364C886.717 345.676 873.805 333.851 864.635 318.888C855.464 303.684 850.879 286.429 850.879 267.122C850.879 247.574 855.343 230.319 864.273 215.356C873.443 200.152 885.872 188.327 901.559 179.88C917.245 171.192 934.983 166.848 954.773 166.848C973.838 166.848 990.973 170.951 1006.18 179.156C1021.62 187.12 1033.81 198.704 1042.74 213.908C1051.67 228.871 1056.13 246.85 1056.13 267.846C1056.13 270.018 1056.01 272.552 1055.77 275.448C1055.53 278.103 1055.29 280.637 1055.05 283.05H896.853V250.108H1025.36L1003.64 259.882C1003.64 249.746 1001.59 240.937 997.489 233.456C993.386 225.975 987.715 220.183 980.475 216.08C973.235 211.736 964.788 209.564 955.135 209.564C945.481 209.564 936.914 211.736 929.433 216.08C922.193 220.183 916.521 226.095 912.419 233.818C908.316 241.299 906.265 250.229 906.265 260.606V269.294C906.265 279.913 908.557 289.325 913.143 297.53C917.969 305.494 924.606 311.648 933.053 315.992C941.741 320.095 951.877 322.146 963.461 322.146C973.838 322.146 982.888 320.577 990.611 317.44C998.575 314.303 1005.81 309.597 1012.33 303.322L1042.38 335.902C1033.45 346.038 1022.23 353.881 1008.71 359.432C995.196 364.741 979.63 367.396 962.013 367.396ZM1187.85 367.396C1166.85 367.396 1148.15 363.173 1131.74 354.726C1115.33 346.038 1102.42 334.092 1093.01 318.888C1083.84 303.684 1079.25 286.429 1079.25 267.122C1079.25 247.574 1083.84 230.319 1093.01 215.356C1102.42 200.152 1115.33 188.327 1131.74 179.88C1148.15 171.192 1166.85 166.848 1187.85 166.848C1208.36 166.848 1226.22 171.192 1241.43 179.88C1256.63 188.327 1267.85 200.514 1275.09 216.442L1231.29 239.972C1226.22 230.801 1219.83 224.044 1212.1 219.7C1204.62 215.356 1196.42 213.184 1187.49 213.184C1177.83 213.184 1169.15 215.356 1161.42 219.7C1153.7 224.044 1147.55 230.198 1142.96 238.162C1138.62 246.126 1136.45 255.779 1136.45 267.122C1136.45 278.465 1138.62 288.118 1142.96 296.082C1147.55 304.046 1153.7 310.2 1161.42 314.544C1169.15 318.888 1177.83 321.06 1187.49 321.06C1196.42 321.06 1204.62 319.009 1212.1 314.906C1219.83 310.562 1226.22 303.684 1231.29 294.272L1275.09 318.164C1267.85 333.851 1256.63 346.038 1241.43 354.726C1226.22 363.173 1208.36 367.396 1187.85 367.396ZM1425.98 166.848C1441.43 166.848 1455.18 169.985 1467.25 176.26C1479.56 182.293 1489.21 191.705 1496.21 204.496C1503.21 217.045 1506.71 233.215 1506.71 253.004V364.5H1450.23V261.692C1450.23 246.005 1446.74 234.421 1439.74 226.94C1432.98 219.459 1423.33 215.718 1410.78 215.718C1401.85 215.718 1393.76 217.649 1386.52 221.51C1379.52 225.13 1373.97 230.801 1369.87 238.524C1366.01 246.247 1364.08 256.141 1364.08 268.208V364.5H1307.61V169.744H1361.54V223.682L1351.41 207.392C1358.41 194.36 1368.42 184.345 1381.45 177.346C1394.49 170.347 1409.33 166.848 1425.98 166.848ZM1650.57 367.396C1629.81 367.396 1611.35 363.052 1595.18 354.364C1579.25 345.676 1566.58 333.851 1557.17 318.888C1548 303.684 1543.42 286.429 1543.42 267.122C1543.42 247.574 1548 230.319 1557.17 215.356C1566.58 200.152 1579.25 188.327 1595.18 179.88C1611.35 171.192 1629.81 166.848 1650.57 166.848C1671.08 166.848 1689.42 171.192 1705.59 179.88C1721.76 188.327 1734.43 200.031 1743.6 214.994C1752.77 229.957 1757.36 247.333 1757.36 267.122C1757.36 286.429 1752.77 303.684 1743.6 318.888C1734.43 333.851 1721.76 345.676 1705.59 354.364C1689.42 363.052 1671.08 367.396 1650.57 367.396ZM1650.57 321.06C1659.98 321.06 1668.43 318.888 1675.91 314.544C1683.39 310.2 1689.3 304.046 1693.65 296.082C1697.99 287.877 1700.16 278.223 1700.16 267.122C1700.16 255.779 1697.99 246.126 1693.65 238.162C1689.3 230.198 1683.39 224.044 1675.91 219.7C1668.43 215.356 1659.98 213.184 1650.57 213.184C1641.16 213.184 1632.71 215.356 1625.23 219.7C1617.75 224.044 1611.71 230.198 1607.13 238.162C1602.78 246.126 1600.61 255.779 1600.61 267.122C1600.61 278.223 1602.78 287.877 1607.13 296.082C1611.71 304.046 1617.75 310.2 1625.23 314.544C1632.71 318.888 1641.16 321.06 1650.57 321.06Z" fill="white"/>
<path d="M1869.31 368.844C1852.18 368.844 1836.37 365.707 1821.89 359.432C1807.65 352.916 1795.95 343.745 1786.78 331.92L1819.36 292.824C1826.36 301.995 1833.72 308.993 1841.44 313.82C1849.16 318.405 1857.49 320.698 1866.42 320.698C1890.31 320.698 1902.26 306.701 1902.26 278.706V158.16H1813.2V111.1H1960.54V275.448C1960.54 306.821 1952.82 330.231 1937.37 345.676C1921.93 361.121 1899.24 368.844 1869.31 368.844ZM2005.43 364.5V169.744H2059.37V224.768L2051.77 208.84C2057.56 195.084 2066.85 184.707 2079.64 177.708C2092.43 170.468 2108 166.848 2126.34 166.848V218.976C2123.93 218.735 2121.76 218.614 2119.82 218.614C2117.89 218.373 2115.84 218.252 2113.67 218.252C2098.23 218.252 2085.68 222.717 2076.02 231.646C2066.61 240.334 2061.9 253.969 2061.9 272.552V364.5H2005.43Z" fill="#4275F9"/>
</svg>
