<svg width="546" height="113" viewBox="0 0 546 113" fill="none" xmlns="http://www.w3.org/2000/svg">
<g clip-path="url(#clip0_115_130)">
<path fill-rule="evenodd" clip-rule="evenodd" d="M475.666 93.1521C471.122 93.1521 466.93 92.3201 463.09 90.6561C459.314 88.9281 456.21 86.4961 453.778 83.3601L462.418 72.9921C466.066 77.9201 470.226 80.3841 474.898 80.3841C481.234 80.3841 484.402 76.6721 484.402 69.2481V37.28H460.786V24.8H499.858V68.3841C499.858 76.6401 497.81 82.8481 493.714 87.0081C489.618 91.1041 483.602 93.1521 475.666 93.1521ZM535.668 41.5041C532.66 42.784 530.26 44.6721 528.468 47.1681V40.3521H514.164V92.0001H529.14V67.6161C529.14 62.816 530.356 59.2321 532.788 56.8641C535.22 54.4321 538.58 53.2161 542.868 53.2161C543.444 53.2161 544.564 53.2801 546.228 53.4081V39.5841C542.26 39.5841 538.74 40.2241 535.668 41.5041Z" fill="#3550BB"/>
<path fill-rule="evenodd" clip-rule="evenodd" d="M175.984 37.4721H154.48V24.8H213.04V37.4721H191.536V92.0001H175.984V37.4721ZM265.693 66.368C265.693 66.5601 265.597 67.9041 265.405 70.4001H226.333C227.037 73.6001 228.701 76.1281 231.325 77.9841C233.949 79.8401 237.213 80.7681 241.117 80.7681C243.805 80.7681 246.173 80.3841 248.221 79.6161C250.333 78.784 252.285 77.5041 254.077 75.7761L262.045 84.4161C257.181 89.9841 250.077 92.7681 240.733 92.7681C234.909 92.7681 229.757 91.648 225.277 89.4081C220.797 87.104 217.341 83.9361 214.909 79.9041C212.477 75.8721 211.261 71.2961 211.261 66.176C211.261 61.12 212.445 56.5761 214.813 52.5441C217.245 48.4481 220.541 45.28 224.701 43.04C228.925 40.736 233.629 39.5841 238.813 39.5841C243.869 39.5841 248.445 40.6721 252.541 42.8481C256.637 45.0241 259.837 48.1601 262.141 52.2561C264.509 56.2881 265.693 60.9921 265.693 66.368ZM238.909 50.912C235.517 50.912 232.669 51.872 230.365 53.792C228.061 55.712 226.653 58.3361 226.141 61.6641H251.581C251.069 58.4001 249.661 55.8081 247.357 53.8881C245.053 51.9041 242.237 50.912 238.909 50.912ZM285.744 89.4081C290.16 91.648 295.12 92.7681 300.624 92.7681C306.064 92.7681 310.8 91.6161 314.832 89.312C318.928 87.008 321.904 83.8081 323.76 79.7121L312.144 73.3761C309.52 78.1121 305.648 80.48 300.528 80.48C296.624 80.48 293.392 79.2001 290.832 76.6401C288.272 74.0801 286.992 70.592 286.992 66.176C286.992 61.76 288.272 58.272 290.832 55.7121C293.392 53.1521 296.624 51.8721 300.528 51.8721C305.584 51.8721 309.456 54.2401 312.144 58.9761L323.76 52.7361C321.904 48.5121 318.928 45.28 314.832 43.04C310.8 40.736 306.064 39.5841 300.624 39.5841C295.12 39.5841 290.16 40.736 285.744 43.04C281.392 45.28 277.968 48.4161 275.472 52.4481C273.04 56.4801 271.824 61.056 271.824 66.176C271.824 71.2961 273.04 75.8721 275.472 79.9041C277.968 83.9361 281.392 87.104 285.744 89.4081ZM363.775 39.5841C370.175 39.5841 375.327 41.5041 379.231 45.3441C383.199 49.1841 385.183 54.8801 385.183 62.4321V92.0001H370.207V64.7361C370.207 60.6401 369.311 57.6001 367.519 55.6161C365.727 53.5681 363.135 52.5441 359.743 52.5441C355.967 52.5441 352.959 53.7281 350.719 56.0961C348.479 58.4001 347.359 61.856 347.359 66.4641V92.0001H332.383V40.3521H346.687V46.4001C348.671 44.2241 351.135 42.5601 354.079 41.4081C357.023 40.1921 360.255 39.5841 363.775 39.5841ZM409.208 89.4081C413.56 91.648 418.456 92.7681 423.896 92.7681C429.336 92.7681 434.2 91.648 438.488 89.4081C442.776 87.104 446.136 83.9361 448.568 79.9041C451 75.8721 452.216 71.2961 452.216 66.176C452.216 61.056 451 56.4801 448.568 52.4481C446.136 48.4161 442.776 45.28 438.488 43.04C434.2 40.736 429.336 39.5841 423.896 39.5841C418.456 39.5841 413.56 40.736 409.208 43.04C404.92 45.28 401.56 48.4161 399.128 52.4481C396.696 56.4801 395.48 61.056 395.48 66.176C395.48 71.2961 396.696 75.8721 399.128 79.9041C401.56 83.9361 404.92 87.104 409.208 89.4081ZM433.304 76.6401C430.872 79.2001 427.736 80.48 423.896 80.48C420.056 80.48 416.888 79.2001 414.392 76.6401C411.896 74.0161 410.648 70.528 410.648 66.176C410.648 61.8241 411.896 58.368 414.392 55.8081C416.888 53.1841 420.056 51.8721 423.896 51.8721C427.736 51.8721 430.872 53.1841 433.304 55.8081C435.8 58.368 437.048 61.8241 437.048 66.176C437.048 70.528 435.8 74.0161 433.304 76.6401Z" fill="white"/>
<path fill-rule="evenodd" clip-rule="evenodd" d="M103 28.25L51.5 0L0 28.25V84.75L51.5 113L103 84.75V28.25ZM88.4291 32.1806L51.5 11.7134V56.7297L92.1117 79.2378V38.4754C92.1117 35.8527 90.6996 33.4389 88.4291 32.1806Z" fill="white"/>
</g>
<defs>
<clipPath id="clip0_115_130">
<rect width="546" height="113" fill="white"/>
</clipPath>
</defs>
</svg>
