<svg width="1492" height="258" viewBox="0 0 1492 258" fill="none" xmlns="http://www.w3.org/2000/svg">
<path d="M81.536 253.5V47.884H0.448V0.0999827H221.268V47.884H140.18V253.5H81.536ZM327.393 256.396C305.191 256.396 285.643 252.052 268.749 243.364C252.097 234.676 239.186 222.851 230.015 207.888C220.845 192.684 216.259 175.429 216.259 156.122C216.259 136.574 220.724 119.319 229.653 104.356C238.824 89.152 251.253 77.3267 266.939 68.88C282.626 60.192 300.364 55.848 320.153 55.848C339.219 55.848 356.353 59.9507 371.557 68.156C387.003 76.12 399.19 87.704 408.119 102.908C417.049 117.871 421.513 135.85 421.513 156.846C421.513 159.018 421.393 161.552 421.151 164.448C420.91 167.103 420.669 169.637 420.427 172.05H262.233V139.108H390.743L369.023 148.882C369.023 138.746 366.972 129.937 362.869 122.456C358.767 114.975 353.095 109.183 345.855 105.08C338.615 100.736 330.169 98.564 320.515 98.564C310.862 98.564 302.295 100.736 294.813 105.08C287.573 109.183 281.902 115.095 277.799 122.818C273.697 130.299 271.645 139.229 271.645 149.606V158.294C271.645 168.913 273.938 178.325 278.523 186.53C283.35 194.494 289.987 200.648 298.433 204.992C307.121 209.095 317.257 211.146 328.841 211.146C339.219 211.146 348.269 209.577 355.991 206.44C363.955 203.303 371.195 198.597 377.711 192.322L407.757 224.902C398.828 235.038 387.606 242.881 374.091 248.432C360.577 253.741 345.011 256.396 327.393 256.396ZM553.23 256.396C532.234 256.396 513.531 252.173 497.12 243.726C480.71 235.038 467.798 223.092 458.386 207.888C449.216 192.684 444.63 175.429 444.63 156.122C444.63 136.574 449.216 119.319 458.386 104.356C467.798 89.152 480.71 77.3267 497.12 68.88C513.531 60.192 532.234 55.848 553.23 55.848C573.744 55.848 591.602 60.192 606.806 68.88C622.01 77.3267 633.232 89.514 640.472 105.442L596.67 128.972C591.602 119.801 585.207 113.044 577.484 108.7C570.003 104.356 561.798 102.184 552.868 102.184C543.215 102.184 534.527 104.356 526.804 108.7C519.082 113.044 512.928 119.198 508.342 127.162C503.998 135.126 501.826 144.779 501.826 156.122C501.826 167.465 503.998 177.118 508.342 185.082C512.928 193.046 519.082 199.2 526.804 203.544C534.527 207.888 543.215 210.06 552.868 210.06C561.798 210.06 570.003 208.009 577.484 203.906C585.207 199.562 591.602 192.684 596.67 183.272L640.472 207.164C633.232 222.851 622.01 235.038 606.806 243.726C591.602 252.173 573.744 256.396 553.23 256.396ZM791.361 55.848C806.807 55.848 820.563 58.9853 832.629 65.26C844.937 71.2933 854.591 80.7053 861.589 93.496C868.588 106.045 872.087 122.215 872.087 142.004V253.5H815.615V150.692C815.615 135.005 812.116 123.421 805.117 115.94C798.36 108.459 788.707 104.718 776.157 104.718C767.228 104.718 759.143 106.649 751.903 110.51C744.905 114.13 739.354 119.801 735.251 127.524C731.39 135.247 729.459 145.141 729.459 157.208V253.5H672.987V58.744H726.925V112.682L716.789 96.392C723.788 83.36 733.803 73.3447 746.835 66.346C759.867 59.3473 774.709 55.848 791.361 55.848ZM1015.95 256.396C995.194 256.396 976.732 252.052 960.563 243.364C944.635 234.676 931.965 222.851 922.553 207.888C913.382 192.684 908.797 175.429 908.797 156.122C908.797 136.574 913.382 119.319 922.553 104.356C931.965 89.152 944.635 77.3267 960.563 68.88C976.732 60.192 995.194 55.848 1015.95 55.848C1036.46 55.848 1054.8 60.192 1070.97 68.88C1087.14 77.3267 1099.81 89.0313 1108.98 103.994C1118.15 118.957 1122.74 136.333 1122.74 156.122C1122.74 175.429 1118.15 192.684 1108.98 207.888C1099.81 222.851 1087.14 234.676 1070.97 243.364C1054.8 252.052 1036.46 256.396 1015.95 256.396ZM1015.95 210.06C1025.36 210.06 1033.81 207.888 1041.29 203.544C1048.77 199.2 1054.68 193.046 1059.03 185.082C1063.37 176.877 1065.54 167.223 1065.54 156.122C1065.54 144.779 1063.37 135.126 1059.03 127.162C1054.68 119.198 1048.77 113.044 1041.29 108.7C1033.81 104.356 1025.36 102.184 1015.95 102.184C1006.54 102.184 998.09 104.356 990.609 108.7C983.127 113.044 977.094 119.198 972.509 127.162C968.165 135.126 965.993 144.779 965.993 156.122C965.993 167.223 968.165 176.877 972.509 185.082C977.094 193.046 983.127 199.2 990.609 203.544C998.09 207.888 1006.54 210.06 1015.95 210.06ZM1234.7 257.844C1217.56 257.844 1201.75 254.707 1187.27 248.432C1173.03 241.916 1161.33 232.745 1152.16 220.92L1184.74 181.824C1191.74 190.995 1199.1 197.993 1206.82 202.82C1214.54 207.405 1222.87 209.698 1231.8 209.698C1255.69 209.698 1267.64 195.701 1267.64 167.706V47.16H1178.59V0.0999827H1325.92V164.448C1325.92 195.821 1318.2 219.231 1302.75 234.676C1287.31 250.121 1264.62 257.844 1234.7 257.844ZM1370.81 253.5V58.744H1424.75V113.768L1417.15 97.84C1422.94 84.084 1432.23 73.7067 1445.02 66.708C1457.81 59.468 1473.38 55.848 1491.72 55.848V107.976C1489.31 107.735 1487.14 107.614 1485.21 107.614C1483.27 107.373 1481.22 107.252 1479.05 107.252C1463.61 107.252 1451.06 111.717 1441.4 120.646C1431.99 129.334 1427.29 142.969 1427.29 161.552V253.5H1370.81Z" fill="#4275F9"/>
</svg>
